<svg width="32" height="32" viewBox="0 0 32 32" fill="none" xmlns="http://www.w3.org/2000/svg">
<circle cx="16" cy="16" r="14.5" stroke="#9A7A78" stroke-width="3"/>
<path d="M18.7254 10.2065C18.6243 10.1113 18.5042 10.0358 18.3717 9.9843C18.2393 9.93278 18.0973 9.90625 17.9538 9.90625C17.8104 9.90625 17.6684 9.93278 17.536 9.9843C17.4035 10.0358 17.2834 10.1113 17.1823 10.2065L11.7492 15.2809C11.6473 15.3753 11.5665 15.4875 11.5113 15.6112C11.4561 15.7349 11.4277 15.8675 11.4277 16.0015C11.4277 16.1355 11.4561 16.2681 11.5113 16.3918C11.5665 16.5155 11.6473 16.6277 11.7492 16.7221L17.1823 21.7965C17.2834 21.8916 17.4035 21.9672 17.536 22.0187C17.6684 22.0702 17.8104 22.0967 17.9538 22.0967C18.0973 22.0967 18.2393 22.0702 18.3717 22.0187C18.5042 21.9672 18.6243 21.8916 18.7254 21.7965C18.8272 21.7022 18.908 21.5899 18.9632 21.4663C19.0184 21.3426 19.0468 21.2099 19.0468 21.076C19.0468 20.942 19.0184 20.8093 18.9632 20.6856C18.908 20.562 18.8272 20.4497 18.7254 20.3554L14.0528 16.0015L18.7254 11.6476C18.8272 11.5533 18.908 11.441 18.9632 11.3173C19.0184 11.1937 19.0468 11.061 19.0468 10.927C19.0468 10.793 19.0184 10.6604 18.9632 10.5367C18.908 10.413 18.8272 10.3008 18.7254 10.2065Z" fill="#9A7A78"/>
</svg>
