<svg width="32" height="32" viewBox="0 0 32 32" fill="none" xmlns="http://www.w3.org/2000/svg">
<path d="M1.5 16C1.5 7.99188 7.99187 1.5 16 1.5C24.0081 1.5 30.5 7.99187 30.5 16C30.5 24.0081 24.0081 30.5 16 30.5C7.99187 30.5 1.5 24.0081 1.5 16Z" stroke="#9A7A78" stroke-width="3"/>
<path d="M10.2104 13.2727C10.1152 13.3737 10.0397 13.4939 9.98821 13.6263C9.93668 13.7587 9.91016 13.9008 9.91016 14.0442C9.91016 14.1876 9.93668 14.3297 9.98821 14.4621C10.0397 14.5945 10.1152 14.7147 10.2104 14.8157L15.2848 20.2489C15.3792 20.3507 15.4914 20.4316 15.6151 20.4867C15.7388 20.5419 15.8714 20.5703 16.0054 20.5703C16.1394 20.5703 16.272 20.5419 16.3957 20.4867C16.5194 20.4316 16.6316 20.3507 16.726 20.2489L21.8004 14.8157C21.8956 14.7147 21.9711 14.5945 22.0226 14.4621C22.0741 14.3297 22.1006 14.1876 22.1006 14.0442C22.1006 13.9008 22.0741 13.7587 22.0226 13.6263C21.9711 13.4939 21.8956 13.3737 21.8004 13.2727C21.7061 13.1708 21.5938 13.09 21.4702 13.0348C21.3465 12.9797 21.2138 12.9513 21.0799 12.9513C20.9459 12.9513 20.8132 12.9797 20.6896 13.0348C20.5659 13.09 20.4536 13.1708 20.3593 13.2727L16.0054 17.9452L11.6515 13.2727C11.5572 13.1708 11.4449 13.09 11.3212 13.0348C11.1976 12.9797 11.0649 12.9513 10.9309 12.9513C10.797 12.9513 10.6643 12.9797 10.5406 13.0348C10.417 13.09 10.3047 13.1708 10.2104 13.2727Z" fill="#9A7A78"/>
</svg>
