<svg width="69" height="69" viewBox="0 0 69 69" fill="none" xmlns="http://www.w3.org/2000/svg">
<circle cx="34.25" cy="34.25" r="31.75" transform="rotate(-90 34.25 34.25)" fill="#A06C45" stroke="#A06C45" stroke-width="5"/>
<path d="M21.8457 28.4142C21.6421 28.6304 21.4805 28.8877 21.3702 29.1711C21.2599 29.4546 21.2031 29.7586 21.2031 30.0657C21.2031 30.3728 21.2599 30.6768 21.3702 30.9602C21.4805 31.2437 21.6421 31.501 21.8457 31.7172L32.7083 43.3476C32.9102 43.5656 33.1505 43.7387 33.4152 43.8568C33.68 43.9748 33.9639 44.0356 34.2507 44.0356C34.5375 44.0356 34.8215 43.9748 35.0862 43.8568C35.351 43.7387 35.5913 43.5656 35.7932 43.3476L46.6557 31.7172C46.8594 31.501 47.021 31.2437 47.1313 30.9602C47.2416 30.6768 47.2984 30.3728 47.2984 30.0657C47.2984 29.7586 47.2416 29.4546 47.1313 29.1711C47.021 28.8877 46.8594 28.6304 46.6557 28.4142C46.4538 28.1961 46.2135 28.0231 45.9488 27.905C45.684 27.7869 45.4001 27.7261 45.1133 27.7261C44.8265 27.7261 44.5425 27.7869 44.2778 27.905C44.013 28.0231 43.7727 28.1961 43.5708 28.4142L34.2507 38.4163L24.9307 28.4142C24.7287 28.1961 24.4885 28.0231 24.2237 27.905C23.959 27.7869 23.675 27.7261 23.3882 27.7261C23.1014 27.7261 22.8175 27.7869 22.5527 27.905C22.288 28.0231 22.0477 28.1961 21.8457 28.4142Z" fill="white"/>
</svg>
