<svg width="69" height="69" viewBox="0 0 69 69" fill="none" xmlns="http://www.w3.org/2000/svg">
<circle cx="34.25" cy="34.25" r="32.25" transform="rotate(-90 34.25 34.25)" fill="#958F71" stroke="#958F71" stroke-width="4"/>
<path d="M21.8448 28.4142C21.6411 28.6304 21.4795 28.8877 21.3692 29.1711C21.2589 29.4546 21.2021 29.7586 21.2021 30.0657C21.2021 30.3728 21.2589 30.6768 21.3692 30.9602C21.4795 31.2437 21.6411 31.501 21.8448 31.7172L32.7073 43.3476C32.9093 43.5656 33.1495 43.7387 33.4143 43.8568C33.679 43.9748 33.963 44.0356 34.2498 44.0356C34.5366 44.0356 34.8205 43.9748 35.0853 43.8568C35.35 43.7387 35.5903 43.5656 35.7922 43.3476L46.6548 31.7172C46.8584 31.501 47.02 31.2437 47.1303 30.9602C47.2406 30.6768 47.2974 30.3728 47.2974 30.0657C47.2974 29.7586 47.2406 29.4546 47.1303 29.1711C47.02 28.8877 46.8584 28.6304 46.6548 28.4142C46.4528 28.1961 46.2125 28.0231 45.9478 27.905C45.683 27.7869 45.3991 27.7261 45.1123 27.7261C44.8255 27.7261 44.5415 27.7869 44.2768 27.905C44.0121 28.0231 43.7718 28.1961 43.5698 28.4142L34.2498 38.4163L24.9297 28.4142C24.7278 28.1961 24.4875 28.0231 24.2227 27.905C23.958 27.7869 23.674 27.7261 23.3872 27.7261C23.1005 27.7261 22.8165 27.7869 22.5518 27.905C22.287 28.0231 22.0467 28.1961 21.8448 28.4142Z" fill="white"/>
</svg>
