<svg width="69" height="69" viewBox="0 0 69 69" fill="none" xmlns="http://www.w3.org/2000/svg">
<circle cx="34.25" cy="34.5" r="32.25" transform="rotate(-90 34.25 34.5)" stroke="#9A7A78" stroke-width="4"/>
<path d="M21.8457 28.6642C21.6421 28.8804 21.4805 29.1377 21.3702 29.4211C21.2599 29.7046 21.2031 30.0086 21.2031 30.3157C21.2031 30.6228 21.2599 30.9268 21.3702 31.2102C21.4805 31.4937 21.6421 31.751 21.8457 31.9672L32.7083 43.5976C32.9102 43.8156 33.1505 43.9887 33.4152 44.1068C33.68 44.2248 33.9639 44.2856 34.2507 44.2856C34.5375 44.2856 34.8215 44.2248 35.0862 44.1068C35.351 43.9887 35.5913 43.8156 35.7932 43.5976L46.6557 31.9672C46.8594 31.751 47.021 31.4937 47.1313 31.2102C47.2416 30.9268 47.2984 30.6228 47.2984 30.3157C47.2984 30.0086 47.2416 29.7046 47.1313 29.4211C47.021 29.1377 46.8594 28.8804 46.6557 28.6642C46.4538 28.4462 46.2135 28.2731 45.9488 28.155C45.684 28.0369 45.4001 27.9761 45.1133 27.9761C44.8265 27.9761 44.5425 28.0369 44.2778 28.155C44.013 28.2731 43.7728 28.4462 43.5708 28.6642L34.2507 38.6663L24.9307 28.6642C24.7287 28.4461 24.4885 28.2731 24.2237 28.155C23.959 28.0369 23.675 27.9761 23.3882 27.9761C23.1014 27.9761 22.8175 28.0369 22.5527 28.155C22.288 28.2731 22.0477 28.4461 21.8457 28.6642Z" fill="#9A7A78"/>
</svg>
