<svg width="32" height="32" viewBox="0 0 32 32" fill="none" xmlns="http://www.w3.org/2000/svg">
<path d="M16 30.5C7.99188 30.5 1.5 24.0081 1.5 16C1.5 7.99186 7.99188 1.5 16 1.5C24.0081 1.5 30.5 7.99187 30.5 16C30.5 24.0081 24.0081 30.5 16 30.5Z" fill="#9A7A78" stroke="#9A7A78" stroke-width="3"/>
<path d="M13.2746 21.7901C13.3757 21.8852 13.4958 21.9607 13.6283 22.0122C13.7607 22.0637 13.9027 22.0903 14.0462 22.0903C14.1896 22.0903 14.3316 22.0637 14.464 22.0122C14.5965 21.9607 14.7166 21.8852 14.8177 21.7901L20.2508 16.7156C20.3527 16.6213 20.4335 16.509 20.4887 16.3853C20.5439 16.2617 20.5723 16.129 20.5723 15.995C20.5723 15.8611 20.5439 15.7284 20.4887 15.6047C20.4335 15.4811 20.3527 15.3688 20.2508 15.2745L14.8177 10.2C14.7166 10.1049 14.5965 10.0294 14.464 9.97784C14.3316 9.92632 14.1896 9.89979 14.0462 9.89979C13.9027 9.89979 13.7607 9.92632 13.6283 9.97784C13.4958 10.0294 13.3757 10.1049 13.2746 10.2C13.1728 10.2943 13.092 10.4066 13.0368 10.5303C12.9816 10.6539 12.9532 10.7866 12.9532 10.9206C12.9532 11.0545 12.9816 11.1872 13.0368 11.3109C13.092 11.4345 13.1728 11.5468 13.2746 11.6411L17.9472 15.995L13.2746 20.3489C13.1728 20.4433 13.092 20.5555 13.0368 20.6792C12.9816 20.8029 12.9532 20.9355 12.9532 21.0695C12.9532 21.2035 12.9816 21.3361 13.0368 21.4598C13.092 21.5835 13.1728 21.6957 13.2746 21.7901Z" fill="#E7C6C3"/>
</svg>
