<svg width="32" height="32" viewBox="0 0 32 32" fill="none" xmlns="http://www.w3.org/2000/svg">
<path d="M16 30.5C7.99188 30.5 1.5 24.0081 1.5 16C1.5 7.99186 7.99188 1.5 16 1.5C24.0081 1.5 30.5 7.99187 30.5 16C30.5 24.0081 24.0081 30.5 16 30.5Z" stroke="#9A7A78" stroke-width="3"/>
<path d="M13.2727 21.7896C13.3737 21.8848 13.4939 21.9603 13.6263 22.0118C13.7587 22.0633 13.9008 22.0898 14.0442 22.0898C14.1876 22.0898 14.3297 22.0633 14.4621 22.0118C14.5945 21.9603 14.7147 21.8848 14.8157 21.7896L20.2489 16.7152C20.3507 16.6208 20.4316 16.5086 20.4867 16.3849C20.5419 16.2612 20.5703 16.1286 20.5703 15.9946C20.5703 15.8606 20.5419 15.728 20.4867 15.6043C20.4316 15.4806 20.3507 15.3684 20.2489 15.274L14.8157 10.1996C14.7147 10.1044 14.5945 10.0289 14.4621 9.97741C14.3297 9.92589 14.1877 9.89936 14.0442 9.89936C13.9008 9.89936 13.7587 9.92589 13.6263 9.97741C13.4939 10.0289 13.3737 10.1044 13.2727 10.1996C13.1708 10.2939 13.09 10.4062 13.0348 10.5298C12.9797 10.6535 12.9513 10.7862 12.9513 10.9201C12.9513 11.0541 12.9797 11.1868 13.0348 11.3104C13.09 11.4341 13.1708 11.5464 13.2727 11.6407L17.9452 15.9946L13.2727 20.3485C13.1708 20.4428 13.09 20.5551 13.0348 20.6788C12.9797 20.8024 12.9513 20.9351 12.9513 21.0691C12.9513 21.203 12.9797 21.3357 13.0348 21.4594C13.09 21.583 13.1708 21.6953 13.2727 21.7896Z" fill="#9A7A78"/>
</svg>
