<svg width="32" height="32" viewBox="0 0 32 32" fill="none" xmlns="http://www.w3.org/2000/svg">
<path d="M16 31.25C7.57766 31.25 0.750005 24.4223 0.750001 16C0.750002 7.57765 7.57766 0.749999 16 0.749999C24.4223 0.749999 31.25 7.57765 31.25 16C31.25 24.4223 24.4223 31.25 16 31.25Z" stroke="#9A7A78" stroke-width="1.5"/>
<path d="M16.0002 7C18.1232 7.00003 20.1779 7.7506 21.8011 9.11905C23.4243 10.4875 24.5114 12.3857 24.8704 14.4782C25.2294 16.5707 24.8371 18.7227 23.7629 20.5539C22.6886 22.3851 21.0016 23.7776 18.9999 24.4853C16.9983 25.193 14.8109 25.1702 12.8244 24.4211C10.8379 23.672 9.18019 22.2448 8.14422 20.3916C7.10826 18.5385 6.76076 16.3788 7.16315 14.2942C7.56553 12.2096 8.6919 10.3344 10.3432 9" stroke="#9A7A78" stroke-width="1.5" stroke-linecap="round" stroke-linejoin="round"/>
<path d="M7 8.5H11V12.5" stroke="#9A7A78" stroke-width="1.5" stroke-linecap="round" stroke-linejoin="round"/>
</svg>
