<svg width="32" height="32" viewBox="0 0 32 32" fill="none" xmlns="http://www.w3.org/2000/svg">
<path d="M16 30.5C7.99188 30.5 1.5 24.0081 1.5 16C1.5 7.99186 7.99188 1.5 16 1.5C24.0081 1.5 30.5 7.99187 30.5 16C30.5 24.0081 24.0081 30.5 16 30.5Z" stroke="#9A7A78" stroke-width="3"/>
<g opacity="0.9">
<path d="M9.51063 12.7399C10.4225 11.1661 11.8754 9.97727 13.5986 9.39485C15.3218 8.81243 17.1979 8.87612 18.8777 9.57404C20.5574 10.272 21.9263 11.5566 22.7294 13.1886C23.5325 14.8207 23.7151 16.689 23.2432 18.4457C22.7713 20.2024 21.6771 21.7277 20.1643 22.7377C18.6514 23.7477 16.8231 24.1734 15.0198 23.9357C13.2164 23.6979 11.5609 22.8129 10.3615 21.4454C9.16207 20.0779 8.50052 18.3211 8.5 16.5021" stroke="#9A7A78" stroke-width="2.6" stroke-linecap="round" stroke-linejoin="round"/>
<path d="M13.1875 12.7539H9.4375V9.00391" stroke="#9A7A78" stroke-width="2.6" stroke-linecap="round" stroke-linejoin="round"/>
</g>
</svg>
