<svg width="69" height="69" viewBox="0 0 69 69" fill="none" xmlns="http://www.w3.org/2000/svg">
<circle cx="34.25" cy="34.5" r="32.25" transform="rotate(90 34.25 34.5)" stroke="#9A7A78" stroke-width="4"/>
<path d="M46.6543 40.3358C46.8579 40.1196 47.0195 39.8623 47.1298 39.5789C47.2401 39.2954 47.2969 38.9914 47.2969 38.6843C47.2969 38.3772 47.2401 38.0732 47.1298 37.7898C47.0195 37.5063 46.8579 37.249 46.6543 37.0328L35.7917 25.4024C35.5898 25.1844 35.3495 25.0113 35.0848 24.8932C34.82 24.7752 34.5361 24.7144 34.2493 24.7144C33.9625 24.7144 33.6785 24.7752 33.4138 24.8932C33.149 25.0113 32.9087 25.1844 32.7068 25.4024L21.8443 37.0328C21.6406 37.249 21.479 37.5063 21.3687 37.7898C21.2584 38.0732 21.2016 38.3772 21.2016 38.6843C21.2016 38.9914 21.2584 39.2954 21.3687 39.5789C21.479 39.8623 21.6406 40.1196 21.8443 40.3358C22.0462 40.5538 22.2865 40.7269 22.5512 40.845C22.816 40.9631 23.0999 41.0239 23.3867 41.0239C23.6735 41.0239 23.9575 40.9631 24.2222 40.845C24.487 40.7269 24.7272 40.5538 24.9292 40.3358L34.2493 30.3337L43.5693 40.3358C43.7713 40.5539 44.0115 40.7269 44.2763 40.845C44.541 40.9631 44.825 41.0239 45.1118 41.0239C45.3986 41.0239 45.6825 40.9631 45.9473 40.845C46.212 40.7269 46.4523 40.5539 46.6543 40.3358Z" fill="#9A7A78"/>
</svg>
