<svg width="69" height="69" viewBox="0 0 69 69" fill="none" xmlns="http://www.w3.org/2000/svg">
<circle cx="34.25" cy="34.25" r="31.75" transform="rotate(90 34.25 34.25)" fill="#9A7A78" stroke="#9A7A78" stroke-width="5"/>
<path d="M46.6543 40.0853C46.8579 39.8691 47.0195 39.6118 47.1298 39.3284C47.2401 39.0449 47.2969 38.7409 47.2969 38.4338C47.2969 38.1268 47.2401 37.8227 47.1298 37.5393C47.0195 37.2558 46.8579 36.9985 46.6543 36.7823L35.7917 25.1519C35.5898 24.9339 35.3495 24.7609 35.0848 24.6428C34.82 24.5247 34.5361 24.4639 34.2493 24.4639C33.9625 24.4639 33.6785 24.5247 33.4138 24.6428C33.149 24.7609 32.9087 24.9339 32.7068 25.1519L21.8443 36.7823C21.6406 36.9986 21.479 37.2558 21.3687 37.5393C21.2584 37.8227 21.2016 38.1268 21.2016 38.4338C21.2016 38.7409 21.2584 39.0449 21.3687 39.3284C21.479 39.6118 21.6406 39.8691 21.8443 40.0853C22.0462 40.3034 22.2865 40.4764 22.5512 40.5945C22.816 40.7126 23.0999 40.7734 23.3867 40.7734C23.6735 40.7734 23.9575 40.7126 24.2222 40.5945C24.487 40.4764 24.7273 40.3034 24.9292 40.0853L34.2493 30.0832L43.5693 40.0853C43.7713 40.3034 44.0115 40.4764 44.2763 40.5945C44.541 40.7126 44.825 40.7734 45.1118 40.7734C45.3986 40.7734 45.6825 40.7126 45.9473 40.5945C46.212 40.4764 46.4523 40.3034 46.6543 40.0853Z" fill="#E7C6C3"/>
</svg>
