<svg width="69" height="69" viewBox="0 0 69 69" fill="none" xmlns="http://www.w3.org/2000/svg">
<circle cx="34.25" cy="34.25" r="32.25" transform="rotate(90 34.25 34.25)" fill="#958F71" stroke="#958F71" stroke-width="4"/>
<path d="M46.6552 40.0858C46.8589 39.8696 47.0205 39.6123 47.1308 39.3289C47.2411 39.0454 47.2979 38.7414 47.2979 38.4343C47.2979 38.1272 47.2411 37.8232 47.1308 37.5398C47.0205 37.2563 46.8589 36.999 46.6552 36.7828L35.7927 25.1524C35.5907 24.9344 35.3505 24.7613 35.0857 24.6432C34.821 24.5252 34.537 24.4644 34.2502 24.4644C33.9634 24.4644 33.6795 24.5252 33.4147 24.6432C33.15 24.7613 32.9097 24.9344 32.7078 25.1524L21.8452 36.7828C21.6416 36.999 21.48 37.2563 21.3697 37.5398C21.2594 37.8232 21.2026 38.1272 21.2026 38.4343C21.2026 38.7414 21.2594 39.0454 21.3697 39.3289C21.48 39.6123 21.6416 39.8696 21.8452 40.0858C22.0472 40.3039 22.2875 40.4769 22.5522 40.595C22.817 40.7131 23.1009 40.7739 23.3877 40.7739C23.6745 40.7739 23.9585 40.7131 24.2232 40.595C24.4879 40.4769 24.7282 40.3039 24.9302 40.0858L34.2502 30.0837L43.5703 40.0858C43.7722 40.3039 44.0125 40.4769 44.2773 40.595C44.542 40.7131 44.826 40.7739 45.1128 40.7739C45.3995 40.7739 45.6835 40.7131 45.9482 40.595C46.213 40.4769 46.4533 40.3039 46.6552 40.0858Z" fill="white"/>
</svg>
