<svg width="32" height="32" viewBox="0 0 32 32" fill="none" xmlns="http://www.w3.org/2000/svg">
<path d="M30.5 16C30.5 24.0081 24.0081 30.5 16 30.5C7.99187 30.5 1.5 24.0081 1.5 16C1.5 7.99187 7.99187 1.5 16 1.5C24.0081 1.5 30.5 7.99188 30.5 16Z" stroke="#9A7A78" stroke-width="3"/>
<path d="M21.7896 18.7273C21.8848 18.6263 21.9603 18.5061 22.0118 18.3737C22.0633 18.2413 22.0898 18.0992 22.0898 17.9558C22.0898 17.8124 22.0633 17.6703 22.0118 17.5379C21.9603 17.4055 21.8848 17.2853 21.7896 17.1843L16.7152 11.7511C16.6208 11.6493 16.5086 11.5684 16.3849 11.5133C16.2612 11.4581 16.1286 11.4297 15.9946 11.4297C15.8606 11.4297 15.728 11.4581 15.6043 11.5133C15.4806 11.5684 15.3684 11.6493 15.274 11.7511L10.1996 17.1843C10.1044 17.2853 10.0289 17.4055 9.97741 17.5379C9.92589 17.6703 9.89936 17.8124 9.89936 17.9558C9.89936 18.0992 9.92589 18.2413 9.97741 18.3737C10.0289 18.5061 10.1044 18.6263 10.1996 18.7273C10.2939 18.8292 10.4062 18.91 10.5298 18.9652C10.6535 19.0203 10.7862 19.0487 10.9201 19.0487C11.0541 19.0487 11.1868 19.0203 11.3104 18.9652C11.4341 18.91 11.5464 18.8292 11.6407 18.7273L15.9946 14.0548L20.3485 18.7273C20.4428 18.8292 20.5551 18.91 20.6788 18.9652C20.8024 19.0203 20.9351 19.0487 21.0691 19.0487C21.203 19.0487 21.3357 19.0203 21.4594 18.9652C21.583 18.91 21.6953 18.8292 21.7896 18.7273Z" fill="#9A7A78"/>
</svg>
